<svg xmlns="http://www.w3.org/2000/svg" xmlns:xlink="http://www.w3.org/1999/xlink" viewBox="0 0 246.86 235.11"><defs><style>.cls-1{isolation:isolate;}.cls-2{fill:#f4f2f2;}.cls-3{fill:#400010;}.cls-4{fill:url(#Gradiente_sem_nome_99);}.cls-11,.cls-12,.cls-15,.cls-16,.cls-17,.cls-22,.cls-23,.cls-28,.cls-31,.cls-32,.cls-33,.cls-34,.cls-35,.cls-36,.cls-42,.cls-45,.cls-5,.cls-50,.cls-7,.cls-8{mix-blend-mode:multiply;}.cls-5{fill:url(#Gradiente_sem_nome_99-2);}.cls-6{fill:url(#Gradiente_sem_nome_99-3);}.cls-11,.cls-12,.cls-16,.cls-28,.cls-31,.cls-34,.cls-35,.cls-45,.cls-7,.cls-8{opacity:0.6;}.cls-7{fill:url(#Gradiente_sem_nome_99-4);}.cls-8{fill:url(#Gradiente_sem_nome_99-5);}.cls-9{fill:url(#Gradiente_sem_nome_99-6);}.cls-10{fill:url(#Gradiente_sem_nome_99-7);}.cls-11{fill:url(#Gradiente_sem_nome_99-8);}.cls-12{fill:url(#Gradiente_sem_nome_99-9);}.cls-13{fill:url(#Gradiente_sem_nome_99-10);}.cls-14{fill:url(#Gradiente_sem_nome_99-11);}.cls-15{fill:url(#Gradiente_sem_nome_99-12);}.cls-16{fill:url(#Gradiente_sem_nome_99-13);}.cls-17{fill:url(#Gradiente_sem_nome_99-14);}.cls-18{fill:#561002;}.cls-19{fill:#541003;}.cls-20{fill:#601a0f;}.cls-21{fill:#bfc6d8;}.cls-21,.cls-29{mix-blend-mode:soft-light;}.cls-22{fill:url(#Áåçûìÿííûé_ãðàäèåíò_19);}.cls-23,.cls-45{fill:#d077b7;}.cls-23{opacity:0.79;}.cls-24{fill:#990236;}.cls-25{fill:#790236;}.cls-26{fill:#72093b;}.cls-27{fill:#ffdfed;}.cls-28{fill:url(#Áåçûìÿííûé_ãðàäèåíò_137);}.cls-29{fill:#fff1ff;}.cls-30{fill:url(#Gradiente_sem_nome_118);}.cls-31{fill:url(#Gradiente_sem_nome_118-2);}.cls-32,.cls-33{opacity:0.5;}.cls-32{fill:url(#Gradiente_sem_nome_118-3);}.cls-33{fill:url(#Gradiente_sem_nome_118-4);}.cls-34{fill:url(#Gradiente_sem_nome_118-5);}.cls-35{fill:url(#Gradiente_sem_nome_118-6);}.cls-36{fill:url(#Gradiente_sem_nome_118-7);}.cls-37{fill:url(#Gradiente_sem_nome_118-8);}.cls-38{fill:#880a2c;}.cls-39{fill:url(#Áåçûìÿííûé_ãðàäèåíò_300);}.cls-40{fill:url(#Gradiente_sem_nome_141);}.cls-41{fill:url(#Gradiente_sem_nome_160);}.cls-42{fill:url(#Áåçûìÿííûé_ãðàäèåíò_169);}.cls-43{fill:#b21d51;}.cls-44{fill:#fff;}.cls-46{fill:#161516;}.cls-47{fill:url(#Áåçûìÿííûé_ãðàäèåíò_300-2);}.cls-48{fill:url(#Gradiente_sem_nome_141-2);}.cls-49{fill:url(#Gradiente_sem_nome_160-2);}.cls-50{fill:url(#Áåçûìÿííûé_ãðàäèåíò_169-2);}.cls-51{fill:#1e1d1e;}.cls-52{fill:url(#Gradiente_sem_nome_108);}.cls-53{fill:url(#Gradiente_sem_nome_108-2);}.cls-54{fill:url(#Gradiente_sem_nome_108-3);}.cls-55{fill:url(#Gradiente_sem_nome_108-4);}.cls-56{stroke:#f2f0f0;stroke-miterlimit:10;fill:url(#Gradiente_sem_nome_176);}</style><linearGradient id="Gradiente_sem_nome_99" x1="123.99" y1="216.28" x2="123.99" y2="170.26" gradientUnits="userSpaceOnUse"><stop offset="0" stop-color="#e59875"/><stop offset="0.44" stop-color="#e59674"/><stop offset="0.61" stop-color="#e38f71"/><stop offset="0.73" stop-color="#e0836b"/><stop offset="0.83" stop-color="#dc7262"/><stop offset="0.91" stop-color="#d75c58"/><stop offset="0.99" stop-color="#d0414a"/><stop offset="1" stop-color="#cf3c48"/><stop offset="1" stop-color="#f29079"/></linearGradient><linearGradient id="Gradiente_sem_nome_99-2" x1="104.42" y1="181.32" x2="144.49" y2="181.32" xlink:href="#Gradiente_sem_nome_99"/><linearGradient id="Gradiente_sem_nome_99-3" x1="188.4" y1="136.56" x2="188.4" y2="90.64" xlink:href="#Gradiente_sem_nome_99"/><linearGradient id="Gradiente_sem_nome_99-4" x1="188.41" y1="128.7" x2="188.41" y2="98.76" xlink:href="#Gradiente_sem_nome_99"/><linearGradient id="Gradiente_sem_nome_99-5" x1="183.18" y1="125.26" x2="183.18" y2="110.58" xlink:href="#Gradiente_sem_nome_99"/><linearGradient id="Gradiente_sem_nome_99-6" x1="177.44" y1="126.22" x2="197.57" y2="126.22" xlink:href="#Gradiente_sem_nome_99"/><linearGradient id="Gradiente_sem_nome_99-7" x1="8.36" y1="136.56" x2="8.36" y2="90.64" gradientTransform="matrix(-1, 0, 0, 1, 66.6, 0)" xlink:href="#Gradiente_sem_nome_99"/><linearGradient id="Gradiente_sem_nome_99-8" x1="8.37" y1="128.7" x2="8.37" y2="98.76" gradientTransform="matrix(-1, 0, 0, 1, 66.6, 0)" xlink:href="#Gradiente_sem_nome_99"/><linearGradient id="Gradiente_sem_nome_99-9" x1="3.14" y1="125.26" x2="3.14" y2="110.58" gradientTransform="matrix(-1, 0, 0, 1, 66.6, 0)" xlink:href="#Gradiente_sem_nome_99"/><linearGradient id="Gradiente_sem_nome_99-10" x1="49.07" y1="126.22" x2="69.2" y2="126.22" xlink:href="#Gradiente_sem_nome_99"/><linearGradient id="Gradiente_sem_nome_99-11" x1="59.86" y1="95.24" x2="186.98" y2="95.24" xlink:href="#Gradiente_sem_nome_99"/><linearGradient id="Gradiente_sem_nome_99-12" x1="62.08" y1="136.62" x2="184.67" y2="136.62" xlink:href="#Gradiente_sem_nome_99"/><linearGradient id="Gradiente_sem_nome_99-13" x1="75.17" y1="110.54" x2="75.17" y2="23.54" xlink:href="#Gradiente_sem_nome_99"/><linearGradient id="Gradiente_sem_nome_99-14" x1="151" y1="40.37" x2="151" y2="37.53" xlink:href="#Gradiente_sem_nome_99"/><linearGradient id="Áåçûìÿííûé_ãðàäèåíò_19" x1="120.47" y1="15.03" x2="130.67" y2="15.03" gradientUnits="userSpaceOnUse"><stop offset="0.01" stop-color="#944092"/><stop offset="1" stop-color="#dcd0e4"/></linearGradient><radialGradient id="Áåçûìÿííûé_ãðàäèåíò_137" cx="122.45" cy="146.76" r="15.03" gradientUnits="userSpaceOnUse"><stop offset="0" stop-color="#ffe9da"/><stop offset="0.99" stop-color="#d077f3"/></radialGradient><linearGradient id="Gradiente_sem_nome_118" x1="122.52" y1="130.55" x2="122.52" y2="115.22" gradientUnits="userSpaceOnUse"><stop offset="0" stop-color="#e59875"/><stop offset="0.56" stop-color="#e59674"/><stop offset="0.76" stop-color="#e38f71"/><stop offset="0.9" stop-color="#e0846b"/><stop offset="1" stop-color="#dd7564"/></linearGradient><linearGradient id="Gradiente_sem_nome_118-2" x1="113.58" y1="128.21" x2="131.06" y2="128.21" xlink:href="#Gradiente_sem_nome_118"/><linearGradient id="Gradiente_sem_nome_118-3" x1="126.84" y1="128.31" x2="131.06" y2="128.31" xlink:href="#Gradiente_sem_nome_118"/><linearGradient id="Gradiente_sem_nome_118-4" x1="113.58" y1="128.24" x2="117.66" y2="128.24" xlink:href="#Gradiente_sem_nome_118"/><linearGradient id="Gradiente_sem_nome_118-5" x1="113.05" y1="123.23" x2="114.7" y2="123.23" xlink:href="#Gradiente_sem_nome_118"/><linearGradient id="Gradiente_sem_nome_118-6" x1="130.24" y1="123.23" x2="131.89" y2="123.23" xlink:href="#Gradiente_sem_nome_118"/><linearGradient id="Gradiente_sem_nome_118-7" x1="113.58" y1="129.81" x2="131.06" y2="129.81" xlink:href="#Gradiente_sem_nome_118"/><linearGradient id="Gradiente_sem_nome_118-8" x1="126.09" y1="124.23" x2="127.4" y2="124.23" xlink:href="#Gradiente_sem_nome_118"/><linearGradient id="Áåçûìÿííûé_ãðàäèåíò_300" x1="151.09" y1="111" x2="151.09" y2="85.03" gradientUnits="userSpaceOnUse"><stop offset="0" stop-color="#ede1ff"/><stop offset="1" stop-color="#bcc8fa"/></linearGradient><linearGradient id="Gradiente_sem_nome_141" x1="21.48" y1="107.98" x2="21.48" y2="88.05" gradientTransform="matrix(-1, 0, 0, 1, 171.39, 0)" gradientUnits="userSpaceOnUse"><stop offset="0" stop-color="#561002"/><stop offset="1" stop-color="#672508"/></linearGradient><linearGradient id="Gradiente_sem_nome_160" x1="21.48" y1="107.39" x2="21.48" y2="88.64" gradientTransform="matrix(-1, 0, 0, 1, 171.39, 0)" gradientUnits="userSpaceOnUse"><stop offset="0" stop-color="#772f23"/><stop offset="0.96" stop-color="#561002"/><stop offset="1" stop-color="#601a0f"/></linearGradient><linearGradient id="Áåçûìÿííûé_ãðàäèåíò_169" x1="21.48" y1="104.1" x2="21.48" y2="91.93" gradientTransform="matrix(-1, 0, 0, 1, 171.39, 0)" gradientUnits="userSpaceOnUse"><stop offset="0" stop-color="#a6daad"/><stop offset="0.99" stop-color="#724a60"/></linearGradient><linearGradient id="Áåçûìÿííûé_ãðàäèåíò_300-2" x1="78.35" y1="111" x2="78.35" y2="85.03" gradientTransform="matrix(-1, 0, 0, 1, 171.39, 0)" xlink:href="#Áåçûìÿííûé_ãðàäèåíò_300"/><linearGradient id="Gradiente_sem_nome_141-2" x1="77.18" y1="107.98" x2="77.18" y2="88.05" xlink:href="#Gradiente_sem_nome_141"/><linearGradient id="Gradiente_sem_nome_160-2" x1="77.18" y1="107.39" x2="77.18" y2="88.64" xlink:href="#Gradiente_sem_nome_160"/><linearGradient id="Áåçûìÿííûé_ãðàäèåíò_169-2" x1="77.18" y1="104.1" x2="77.18" y2="91.93" xlink:href="#Áåçûìÿííûé_ãðàäèåíò_169"/><linearGradient id="Gradiente_sem_nome_108" x1="134.41" y1="74.01" x2="170.09" y2="74.01" gradientUnits="userSpaceOnUse"><stop offset="0" stop-color="#5d1406"/><stop offset="1" stop-color="#69291b"/></linearGradient><linearGradient id="Gradiente_sem_nome_108-2" x1="134.33" y1="80.03" x2="134.33" y2="72.5" xlink:href="#Gradiente_sem_nome_108"/><linearGradient id="Gradiente_sem_nome_108-3" x1="91.27" y1="74.01" x2="126.95" y2="74.01" gradientTransform="matrix(-1, 0, 0, 1, 199.92, 0)" xlink:href="#Gradiente_sem_nome_108"/><linearGradient id="Gradiente_sem_nome_108-4" x1="91.19" y1="80.03" x2="91.19" y2="72.5" gradientTransform="matrix(-1, 0, 0, 1, 199.92, 0)" xlink:href="#Gradiente_sem_nome_108"/><linearGradient id="Gradiente_sem_nome_176" x1="123.85" y1="234.61" x2="123.85" y2="203.31" gradientUnits="userSpaceOnUse"><stop offset="0" stop-color="#fff"/><stop offset="0.47" stop-color="#c5e9fb"/><stop offset="1" stop-color="#89d2f6"/></linearGradient></defs><title>Ativo 5</title><g class="cls-1"><g id="Camada_2" data-name="Camada 2"><g id="layer1"><ellipse class="cls-2" cx="123.43" cy="119.99" rx="123.43" ry="114.03"/><path class="cls-3" d="M77.51,213.5h95.84S215.5,17.11,120.48,17.11,65.89,213.5,65.89,213.5Z"/><path class="cls-4" d="M143.56,199.24c-.39-2.27,0-29,0-29L124,175.76l-19.57-5.5s.39,26.71,0,29S77.51,213.5,77.51,213.5A397,397,0,0,0,124,216.28h1.31c27.6-.1,45.17-2.77,45.17-2.77h0S144,201.51,143.56,199.24Z"/><path class="cls-5" d="M104.55,182.82s19.32,13,38.84,9.09q.56-10.95,1.1-21.91l-40.07.26Z"/><path class="cls-6" d="M198.59,111.76c-.3,1.5-.64,2.85-1,4.06l0,.06c-2.58,8.61-6.51,10.64-8.08,14.52-1.37,3.36-6.74,10.1-12.05,3.09l0,0S179.94,105,182,99.76c0,0,2.94-7.78,8.21-9C197,89.29,201.23,98.5,198.59,111.76Z"/><path class="cls-7" d="M179.26,115.78s10.61-15.92,15.68-17,2.54,12.46,1.52,17a28.08,28.08,0,0,1-2.55,7.15,65.62,65.62,0,0,0,1.53-9.61c.36-6.17-1.54-11.47-3.67-11s-5,8.27-5.18,9.15,1.41,2.46,1.32,7.26-2.31,10-3.52,9.94-.69-3.95-.69-8.43-3.38-3.61-4.88-.7Z"/><path class="cls-8" d="M178.82,119.57s2.73-4.26,4.36-2.32.46,7.3,1.72,8,2.93-3.7,2.6-7.67-1.85-7.53-4-6.86l-4.22,5.11Z"/><path class="cls-9" d="M197.57,115.88c-2.58,8.61-6.51,10.64-8.08,14.52-1.37,3.36-6.74,10.1-12.05,3.09.31.27,3.39,2.85,6.51,1.68,3.28-1.24,4.33-4.41,5.73-6.87S194.63,124.15,197.57,115.88Z"/><path class="cls-10" d="M48.05,111.76c.3,1.5.64,2.85,1,4.06l0,.06c2.58,8.61,6.51,10.64,8.09,14.52,1.36,3.36,6.73,10.1,12,3.09l0,0S66.7,105,64.67,99.76c0,0-2.93-7.78-8.21-9C49.68,89.29,45.41,98.5,48.05,111.76Z"/><path class="cls-11" d="M67.38,115.78s-10.61-15.92-15.68-17-2.54,12.46-1.52,17a28.08,28.08,0,0,0,2.55,7.15,65.62,65.62,0,0,1-1.53-9.61c-.36-6.17,1.54-11.47,3.68-11s5,8.27,5.17,9.15-1.41,2.46-1.31,7.26,2.31,10,3.51,9.94.69-3.95.69-8.43,3.38-3.61,4.88-.7Z"/><path class="cls-12" d="M67.82,119.57s-2.72-4.26-4.36-2.32-.46,7.3-1.71,8-2.94-3.7-2.61-7.67,1.85-7.53,4-6.86l4.22,5.11Z"/><path class="cls-13" d="M49.07,115.88c2.58,8.61,6.51,10.64,8.09,14.52,1.36,3.36,6.73,10.1,12,3.09-.31.27-3.39,2.85-6.5,1.68-3.29-1.24-4.34-4.41-5.73-6.87S52,124.15,49.07,115.88Z"/><path class="cls-14" d="M184.68,96.94a.08.08,0,0,0,0,0c-1.33,7-3,14.31-4.11,22.74-3,22.22-9.4,32.43-24,42.24-15.32,10.29-19.91,14.3-33.13,14.8-13.22-.5-17.82-4.51-33.13-14.8-14.6-9.81-21-20-24-42.24-.67-5-1.51-9.54-2.36-13.88-.63-3.23-1.27-6.34-1.85-9.37l0-.13a.16.16,0,0,1,0,0c-2.11-11.15-3.38-21.45-.49-33.87,3-12.86,13.27-28.82,28.93-38.89h0a60.33,60.33,0,0,1,32.91-9.82c33.94,0,57.14,28.26,61.88,48.72C188.24,75.09,186.86,85.55,184.68,96.94Z"/><path class="cls-15" d="M184.67,97c-1.33,7-3,14.31-4.11,22.74-3,22.22-9.4,32.43-24,42.24-15.32,10.29-19.91,14.3-33.13,14.8-13.22-.5-17.82-4.51-33.13-14.8-14.6-9.81-21-20-24-42.24-1.16-8.64-2.86-16.13-4.21-23.25.42,1.72,3.94,16,7.36,30.51,3.67,15.47,9,25,25.27,36.82,15.09,11,23.88,11.93,28.35,12h.77c4.46,0,13.26-1,28.34-12C168.39,152,173.78,142.45,177.45,127,180.65,113.44,183.91,100.1,184.67,97Z"/><path class="cls-16" d="M90.49,23.54c-.68.52-18.09,13.76-19.34,26-1.28,12.5-.5,26.57-4.39,38.37a45.74,45.74,0,0,0-1.25,22.62c-.09-.26-.7-2-1.58-4.7-.63-3.23-1.27-6.34-1.85-9.37l0-.13a.16.16,0,0,1,0,0c-2.11-11.15-3.38-21.45-.49-33.87,3-12.86,13.27-28.82,28.93-38.89Z"/><path class="cls-17" d="M150,37.53c.21.27.94,1.24,2,2.84Z"/><path class="cls-18" d="M120.88,10c-3.37,0-20.77-8.41-28.07-6.09S81.87,20.3,79.06,20.09s-23-4.43-25.82,0,1.83,12.11,0,13.41S34,38.54,32.06,46s-.74,8.24-1.79,9.44S20,59.59,18.17,66.11,20,78.14,20,79.59s-3.65,3.19-4.49,5.22,2.24,3,2.39,4.49-7.3,11-7,23.19,14,19.4,14.31,24.13-9.82,8.78-9.26,16.89,13.72,11.37,14.59,16.75c.92,5.6-7.57,13.49-4.49,23s15.25,7.5,16.47,9.82-3.84,2-3.56,4S56,218.7,77.51,213.5c0,0-8.16-.27-8.28-2.3s14.6-4.2,18.39-9.42S83.75,190.6,86,188c5.66-6.58-10.61-13-10.79-17.77s5.92-4.28,4.24-12S66.76,128.8,66.51,109s8.42-36,8.66-40.32-1.29-5.22,0-9.13,9.93-6.3,12.66-10.44S91.2,36.17,96,32s18.73-7.34,22.1-8.47,2.74-6.43,2.74-6.43Z"/><path class="cls-19" d="M120.48,10c3.37,0,20.77-8.41,28.07-6.09S159.49,20.3,162.3,20.09s23-4.43,25.81,0-1.82,12.11,0,13.41,19.3,5,21.19,12.52.74,8.24,1.79,9.44,10.28,4.13,12.1,10.65-1.82,12-1.82,13.48,2.78,11.53,2.67,17.69c0,2.21-1.72,7.24-1.86,8.69s6.94,6.52,6.92,12.83c0,12.18-12.64,13.09-12.92,17.82s9.82,8.78,9.26,16.89-13.72,11.37-14.59,16.75c-.92,5.6,7.57,13.49,4.49,23s-15.25,7.5-16.47,9.82,3.84,2,3.56,4-17.11,11.56-38.58,6.36c0,0,8.16-.27,8.28-2.3s-14.6-4.2-18.39-9.42,3.87-11.18,1.66-13.75c-5.66-6.58,10.6-13,10.79-17.77s-5.92-4.28-4.24-12S174.6,128.8,174.85,109s-8.42-36-8.66-40.32,1.29-5.22,0-9.13-9.93-6.3-12.66-10.44-3.37-13-8.21-17.14-18.73-7.34-22.1-8.47-2.74-6.43-2.74-6.43Z"/><path class="cls-20" d="M120.48,10a119.27,119.27,0,0,1,17.57-7.18A65.81,65.81,0,0,1,147.3.54,27.83,27.83,0,0,1,157,.36a9.14,9.14,0,0,1,2.48.86l1.19.65c.36.29.69.62,1,.93l.51.48.4.57c.25.39.53.77.75,1.17a14.63,14.63,0,0,1,.94,2.53c.89,3.45.75,6.82.86,10s.32,6.51,2.3,7.32a13.77,13.77,0,0,0,4,1.21c1.5.24,3,.44,4.54.57,6.16.52,12.44.55,18.8,1,1.6.14,3.2.29,4.83.54a17.09,17.09,0,0,1,5.17,1.46,7.54,7.54,0,0,1,2.41,2,6.92,6.92,0,0,1,1.51,3,7.31,7.31,0,0,1-.11,3.38,20.29,20.29,0,0,1-.86,2.57c-.28.75-.54,1.45-.72,2.09-.07.32-.16.63-.2.93l-.06.44a.6.6,0,0,1,0,.23c.06.23,0,.14.25.36a5.43,5.43,0,0,0,1.53.62c1.38.46,3,.47,5.16,2a4,4,0,0,1,.76.73,3.61,3.61,0,0,1,.71,1.21,4.22,4.22,0,0,1-.06,2.65,12.79,12.79,0,0,1-1.38,2.66c-1,1.46-1.94,2.72-2.8,4A13.65,13.65,0,0,0,209,62.11c-.11.49,0,.57-.07.48a1.74,1.74,0,0,0,.17.12,6,6,0,0,0,.73.33,47.56,47.56,0,0,1,4.5,2.12,55.28,55.28,0,0,1,8.26,5.48,32.94,32.94,0,0,1,7,7.48,18.07,18.07,0,0,1,2.3,5,14.93,14.93,0,0,1,.51,5.65,33.78,33.78,0,0,1-2.89,10c-1.33,3.06-2.87,6-4.27,8.79a31.27,31.27,0,0,0-1.78,4.12,4.35,4.35,0,0,0-.22,1.18l.95,1.76c3,5.76,6,11.66,7.44,18.45a14.57,14.57,0,0,1,.15,5.6,5.4,5.4,0,0,1-1.75,2.91,7.83,7.83,0,0,1-2.58,1.42,29.44,29.44,0,0,0-4.22,1.47,3.71,3.71,0,0,0-2,2.71,41.8,41.8,0,0,0-.34,4.59c-.08,1.62-.21,3.25-.14,4.71a14,14,0,0,0,1.07,4.31l.87,2.23.45,1.12c.15.43.28.91.41,1.36a5.77,5.77,0,0,1-.12,3,6.76,6.76,0,0,1-1.44,2.43,24.25,24.25,0,0,1-3.85,3.13,19.13,19.13,0,0,0-3.49,3,5,5,0,0,0-1.23,4c.34,3,2.4,5.68,4.78,7.66a29.13,29.13,0,0,0,8.15,4.69,29.46,29.46,0,0,1-8.56-4.14c-2.55-1.9-4.94-4.54-5.53-8a6.42,6.42,0,0,1,1.28-5.08,20.32,20.32,0,0,1,3.61-3.42,23.57,23.57,0,0,0,3.39-3.06,3.75,3.75,0,0,0,.89-3.56l-.33-.94-.5-1.11-1-2.25a16.67,16.67,0,0,1-1.41-5,49.89,49.89,0,0,1-.05-5,40.69,40.69,0,0,1,.22-5.12l.4-1.44c.23-.47.47-.94.73-1.39a7.35,7.35,0,0,1,2.26-2,29,29,0,0,1,4.62-1.81c1.4-.53,2-1.09,2.19-2a12.08,12.08,0,0,0-.31-4,44.67,44.67,0,0,0-3.11-8.73c-1.3-2.87-2.77-5.67-4.33-8.45l-.59-1-.3-.53-.16-.29c-.09-.21-.18-.42-.26-.64a6.51,6.51,0,0,1,.17-3.6,33.45,33.45,0,0,1,2-4.81c1.41-3,2.85-5.79,4-8.67a30.9,30.9,0,0,0,2.47-8.63A11.82,11.82,0,0,0,226,80.62c-3.25-4.79-8.43-8.49-13.71-11.39a44.14,44.14,0,0,0-4.06-1.94,6,6,0,0,1-3-2.19,5.24,5.24,0,0,1-.49-4.21A17.05,17.05,0,0,1,207.39,56c1-1.37,1.94-2.65,2.75-3.87a8.13,8.13,0,0,0,.88-1.6c.07-.15,0-.17.09.27s.09.21.08.2-.06-.05-.1-.09a14.08,14.08,0,0,0-3.68-1.23,9.14,9.14,0,0,1-2.8-1.23,4.88,4.88,0,0,1-2.08-3.65c0-.33,0-.66,0-1l.11-.76a12.62,12.62,0,0,1,.33-1.44c.27-.92.59-1.72.89-2.48.61-1.49,1-2.73.83-3.45a2.77,2.77,0,0,0-.62-1.24,6,6,0,0,0-.61-.66c-.22-.25-.4-.22-.57-.38A14.18,14.18,0,0,0,199,32.26c-1.47-.25-3-.42-4.53-.58-6.18-.55-12.47-.75-18.83-1.48-1.59-.18-3.19-.44-4.8-.74a16.72,16.72,0,0,1-5-1.73,6.28,6.28,0,0,1-2.24-2.2L163,24.14c-.13-.46-.24-.92-.35-1.38a25,25,0,0,1-.36-5.17c0-3.29.23-6.49-.42-9.37a6.88,6.88,0,0,0-5.33-5.68,25.82,25.82,0,0,0-9-.29A64.47,64.47,0,0,0,138.36,4,143.88,143.88,0,0,0,120.48,10Z"/><path class="cls-20" d="M110.74,10.9c-5.66-1-11.35-1.79-17.06-2.31a84.51,84.51,0,0,0-8.56-.37c-2.8.1-5.81.18-8.16,1.47a7,7,0,0,0-2.84,2.78c-.59,1.17-.46,2.53-.41,4.08A5.39,5.39,0,0,1,73.23,19a5,5,0,0,1-1.75,1.82A8.34,8.34,0,0,1,67,22.17c-3.07,0-5.86-.89-8.63-1.34s-5.56-.56-7.94.67a10,10,0,0,0-1.69,1.06,3.77,3.77,0,0,0-1,1.43,20.08,20.08,0,0,0-1.26,4c-.64,2.83-1.07,5.75-1.53,8.68-.23,1.47-.47,2.94-.76,4.42-.14.74-.3,1.48-.5,2.23a6.79,6.79,0,0,1-1,2.36,8.84,8.84,0,0,1-3.94,2.83,39.69,39.69,0,0,1-4.19,1.41,35.27,35.27,0,0,0-7.85,2.93,9,9,0,0,0-2.92,2.52A7.14,7.14,0,0,0,22.86,59a34.88,34.88,0,0,0,1.19,8.48c.69,2.84,1.51,5.66,2.29,8.53a39.72,39.72,0,0,1,1.68,9,6.47,6.47,0,0,1-.48,2.61A6.71,6.71,0,0,1,26,89.83a16,16,0,0,1-3.88,2.56,81.75,81.75,0,0,0-7.67,3.79,9.5,9.5,0,0,0-2.86,2.66,5,5,0,0,0-.86,3.43,4.83,4.83,0,0,0,2.14,2.83c1.1.84,2.35,1.61,3.54,2.57a12.32,12.32,0,0,1,3.14,3.53,10.8,10.8,0,0,1,1.34,4.65,16.83,16.83,0,0,1-2.1,9.05c-1.51,2.75-3.92,4.71-5.47,6.93a5.64,5.64,0,0,0-1.07,3.68,10,10,0,0,0,1.2,3.87c1.31,2.38,3.85,3.86,6.4,5s5.38,2.05,7.89,3.77a6.2,6.2,0,0,1,2.69,3.75,4.81,4.81,0,0,1-.12,2.41,6.41,6.41,0,0,1-1.19,2c-2,2.23-4.29,4-5.78,6.51a17.66,17.66,0,0,0-2.54,8.27c-.37,5.9,1.06,11.77,2.81,17.39-1.88-5.58-3.48-11.41-3.21-17.42a18.36,18.36,0,0,1,2.46-8.55c1.5-2.62,3.87-4.53,5.72-6.68a4.16,4.16,0,0,0,1.06-3.75,5.22,5.22,0,0,0-2.44-3.1c-2.36-1.48-5.16-2.27-7.83-3.44s-5.48-2.64-7.15-5.45a11.32,11.32,0,0,1-1.47-4.51,7.25,7.25,0,0,1,1.27-4.69c1.79-2.6,4-4.42,5.3-6.91a14.64,14.64,0,0,0,1.73-8,9,9,0,0,0-3.82-6.74c-1.08-.86-2.3-1.6-3.52-2.52a6.8,6.8,0,0,1-3-4.07,7.13,7.13,0,0,1,1.15-5,11.34,11.34,0,0,1,3.45-3.29,80,80,0,0,1,7.83-4c2.49-1.25,4.86-2.84,4.63-5.36a39.33,39.33,0,0,0-1.64-8.39c-.77-2.84-1.58-5.7-2.27-8.62A36.64,36.64,0,0,1,20.74,59a9.28,9.28,0,0,1,1.34-4.81A11.1,11.1,0,0,1,25.7,51,36.79,36.79,0,0,1,34,47.93a39.66,39.66,0,0,0,4-1.31A7,7,0,0,0,41.1,44.5a12.18,12.18,0,0,0,1.17-3.8c.29-1.42.53-2.88.77-4.33.49-2.92.92-5.87,1.62-8.81a22.13,22.13,0,0,1,1.48-4.4,5.51,5.51,0,0,1,1.58-2,11.38,11.38,0,0,1,2-1.22c2.86-1.42,6.1-1.25,8.94-.69s5.63,1.45,8.34,1.44a6.9,6.9,0,0,0,3.73-1,3.12,3.12,0,0,0,1.67-3.08c0-1.37-.15-3.12.66-4.63a7.94,7.94,0,0,1,3.37-3.19c2.83-1.41,5.81-1.31,8.69-1.35A85.49,85.49,0,0,1,93.74,8C99.46,8.67,105.12,9.67,110.74,10.9Z"/><path class="cls-20" d="M128.17,13.71Q138.81,12,149.55,11.1a147.73,147.73,0,0,1,21.56-.37,47.51,47.51,0,0,1,10.72,1.8,21.47,21.47,0,0,1,5.07,2.27,6.92,6.92,0,0,1,3.5,4.73,8.26,8.26,0,0,1-1.88,5.62,39.4,39.4,0,0,1-3.67,4.21c-.63.65-1.26,1.3-1.79,2a2.79,2.79,0,0,0-.51.86c0-.1,0,0,.31.23a19.44,19.44,0,0,0,4.93,1.22c1.77.3,3.56.58,5.36,1.07s3.72,1.08,5.12,3a5.84,5.84,0,0,1,.8,3.16,18.49,18.49,0,0,1-.24,2.93c-.29,1.89-.72,3.69-1.06,5.48a16.5,16.5,0,0,0-.37,5.17,3.44,3.44,0,0,0,.85,1.93,3,3,0,0,0,.82.58l1.23.58A65.38,65.38,0,0,1,209.84,63,17.09,17.09,0,0,1,214,67a4.33,4.33,0,0,1,.76,3.47,5.31,5.31,0,0,1-2,2.67c-3.2,2.28-6.67,3.31-9.43,5.35a5.3,5.3,0,0,0-2.51,3.63,5.71,5.71,0,0,0,1.81,4.12c2.3,2.52,5.56,4.26,8.2,7.22a7.31,7.31,0,0,1,2,6,9.92,9.92,0,0,1-3,5.39c-3,2.79-6.82,3.63-9.39,5.57a4.1,4.1,0,0,0-1.69,3.86,20.81,20.81,0,0,0,1.33,5,40.81,40.81,0,0,0,2.37,4.85,13,13,0,0,1,1.7,5.71,17.92,17.92,0,0,1-.79,5.86,11.31,11.31,0,0,1-3.33,5c-2.95,2.59-6.45,3.9-9.67,5.42a30.49,30.49,0,0,0-4.62,2.5,8.69,8.69,0,0,0-3.17,3.54c-.34.95.89,2.59,2,3.84s2.49,2.61,3.72,4a13.88,13.88,0,0,1,3.05,5,5.9,5.9,0,0,1-1.51,6,14.86,14.86,0,0,1-4.94,2.85c-1.7.67-3.4,1.23-5,2a6.78,6.78,0,0,0-3.59,3.23c-.58,1.47-.19,3.33.36,5a15.34,15.34,0,0,0,6.81,7.78,26.45,26.45,0,0,0,7.35,3,3.05,3.05,0,0,1,2.47,1.62,4.25,4.25,0,0,1-.34,3,25.51,25.51,0,0,1-1.22,2.52c-.8,1.61-1.89,3.26-1.86,5,0,.87.79,1.35,1.61,1.65a14.72,14.72,0,0,0,2.57.68,47.3,47.3,0,0,0,5.32.59c3.58.2,7.17.2,10.75.07-3.58.22-7.17.31-10.76.19a46.49,46.49,0,0,1-5.38-.46,15.49,15.49,0,0,1-2.65-.64,4.41,4.41,0,0,1-1.27-.66,2,2,0,0,1-.69-1.36,5.89,5.89,0,0,1,.61-2.82c.36-.87.78-1.7,1.19-2.52a25,25,0,0,0,1.13-2.48,3.67,3.67,0,0,0,.29-2.41c-.27-.67-1.07-.9-1.95-1.08a27,27,0,0,1-7.68-2.9,16.12,16.12,0,0,1-7.42-8.27,15.33,15.33,0,0,1-.71-2.82,6.34,6.34,0,0,1,.27-3.07,8,8,0,0,1,4.19-4.05c3.27-1.68,7-2.44,9.38-4.73a4.13,4.13,0,0,0,1-4.25,12.44,12.44,0,0,0-2.74-4.26c-1.19-1.33-2.5-2.57-3.77-3.95a17.08,17.08,0,0,1-1.8-2.31,4.33,4.33,0,0,1-.67-3.44,10.23,10.23,0,0,1,3.92-4.6,32.61,32.61,0,0,1,4.89-2.69c3.27-1.53,6.63-2.87,9.16-5.14a9.27,9.27,0,0,0,2.73-4.07,16.12,16.12,0,0,0,.66-5.09c0-3.34-2.64-6.16-4-9.84a23,23,0,0,1-1.51-5.67,6.33,6.33,0,0,1,2.51-5.8,27.54,27.54,0,0,1,4.94-2.74,17,17,0,0,0,4.27-2.73,7.66,7.66,0,0,0,2.32-4.07A5,5,0,0,0,209.18,95c-2.21-2.55-5.47-4.33-8.13-7.2A7.88,7.88,0,0,1,198.71,82a7.38,7.38,0,0,1,3.4-5.21c3.13-2.25,6.72-3.34,9.43-5.29a3.52,3.52,0,0,0,1.31-1.54,2.3,2.3,0,0,0-.49-1.76,15.09,15.09,0,0,0-3.66-3.49,63,63,0,0,0-9.22-5.36l-1.21-.58a4.87,4.87,0,0,1-1.38-1,5.4,5.4,0,0,1-1.38-3,18.48,18.48,0,0,1,.41-5.86c.35-1.84.79-3.64,1.09-5.41s.48-3.67-.21-4.75-2.47-1.84-4.1-2.31-3.42-.79-5.18-1.12a19.19,19.19,0,0,1-5.46-1.49,2.32,2.32,0,0,1-.74-.66,1.77,1.77,0,0,1-.27-.57,1.71,1.71,0,0,1,0-.71,3.92,3.92,0,0,1,.84-1.52c.63-.77,1.28-1.41,1.92-2.06a39.31,39.31,0,0,0,3.59-4,7,7,0,0,0,1.68-4.58,5.66,5.66,0,0,0-2.85-3.79,20.67,20.67,0,0,0-4.74-2.2A51.1,51.1,0,0,0,171,11.77a149.06,149.06,0,0,0-21.45-.15C142.43,12,135.28,12.72,128.17,13.71Z"/><path class="cls-20" d="M118.14,23.54a153.85,153.85,0,0,0-17.44,1.51,41.48,41.48,0,0,0-8.44,2.07,7.25,7.25,0,0,0-3.39,2.37,7,7,0,0,0-1.62,3.81c-.31,2.82.59,5.84.49,9a20.5,20.5,0,0,1-.19,2.34,5.06,5.06,0,0,1-1,2.34,11.37,11.37,0,0,1-3.72,2.86,63.59,63.59,0,0,1-8.28,3.28,36.1,36.1,0,0,0-7.85,3.41,4.86,4.86,0,0,0-1.33,1.3,3.75,3.75,0,0,0-.58,1.7,6.71,6.71,0,0,0,1.16,3.7c1.45,2.48,3.34,5,4.45,8A16.57,16.57,0,0,1,71,73.48a6.24,6.24,0,0,1,.11,2.64A11.52,11.52,0,0,1,69,80.53a70.43,70.43,0,0,1-6.05,6.75c-2.07,2.12-4.14,4.23-6,6.49a20.59,20.59,0,0,0-4.16,7.35,8.35,8.35,0,0,0-.08,3.94A24,24,0,0,0,54.27,109a19,19,0,0,0,5.55,6.34A15.87,15.87,0,0,1,63,118.93a18.41,18.41,0,0,1,1.85,4.44c.23.76.35,1.53.53,2.29a8.56,8.56,0,0,1,.19,2.55,9.23,9.23,0,0,1-1.77,4.72,38.14,38.14,0,0,1-3,3.49c-1,1.06-1.7,2.16-1.39,2.9.29.91,1.47,1.82,2.63,2.67s2.37,1.63,3.62,2.42A42.32,42.32,0,0,1,69.39,147a6.86,6.86,0,0,1,2.82,4.28c.26,3.91-2.46,6.52-4.83,8.28s-5,3.26-7.45,4.88-4.86,3.31-6.14,5.66a5.11,5.11,0,0,0-.49,3.75,10.07,10.07,0,0,0,2,3.58,16.73,16.73,0,0,0,6.88,4.81,48.38,48.38,0,0,0,8.36,2.28,16.09,16.09,0,0,1,4.37,1.34,2.33,2.33,0,0,1,1,1.09,2.09,2.09,0,0,1-.07,1.55,5.34,5.34,0,0,1-1.55,2c-2.54,1.92-5.43,2.6-8.09,3.79a15.65,15.65,0,0,0-3.75,2.1,5,5,0,0,0-2,3.55,13.6,13.6,0,0,0,3,8.1,19.7,19.7,0,0,0,6.81,5.52,19.79,19.79,0,0,1-7.07-5.3,14,14,0,0,1-3.36-8.37A5.71,5.71,0,0,1,62,195.76a16.74,16.74,0,0,1,3.87-2.33c2.66-1.26,5.58-2.11,7.73-3.87A4.3,4.3,0,0,0,74.77,188c.2-.57.09-.79-.47-1.14a15.87,15.87,0,0,0-4-1.13,49.28,49.28,0,0,1-8.62-2.18,18.29,18.29,0,0,1-7.56-5.12,11.66,11.66,0,0,1-2.37-4.19,6.88,6.88,0,0,1,.55-5c1.6-3,4.22-4.73,6.64-6.45s5-3.14,7.33-4.86a12.91,12.91,0,0,0,2.93-2.87,5.64,5.64,0,0,0,1.08-3.53,4.9,4.9,0,0,0-2.1-2.93,38.33,38.33,0,0,0-3.57-2.41c-1.25-.79-2.52-1.6-3.74-2.49S58.22,142,57.44,140a3.84,3.84,0,0,1,.33-3,10.12,10.12,0,0,1,1.47-2,35.21,35.21,0,0,0,2.8-3.31,7,7,0,0,0,1.36-3.6,13.65,13.65,0,0,0-.67-4.05,15.36,15.36,0,0,0-1.62-3.85,13.6,13.6,0,0,0-2.73-3.07A39.43,39.43,0,0,1,55,114,17.57,17.57,0,0,1,52.35,110a26.41,26.41,0,0,1-1.71-4.46,10.39,10.39,0,0,1,.12-5,22.53,22.53,0,0,1,4.62-8.16c1.93-2.36,4-4.49,6.13-6.61a68.65,68.65,0,0,0,5.9-6.48,9.62,9.62,0,0,0,1.82-3.57,8.22,8.22,0,0,0-.67-3.86c-1-2.69-2.73-5-4.26-7.72A8.47,8.47,0,0,1,63,59.33a5.58,5.58,0,0,1,.9-2.51A6.08,6.08,0,0,1,65.71,55,36.86,36.86,0,0,1,74,51.57a63,63,0,0,0,8.13-3,10.07,10.07,0,0,0,3.33-2.43,3.79,3.79,0,0,0,.81-1.69,19.66,19.66,0,0,0,.2-2.17c.17-2.91-.71-5.87-.32-9.08A8.47,8.47,0,0,1,92,26.31a41.86,41.86,0,0,1,8.65-1.86A133.29,133.29,0,0,1,118.14,23.54Z"/><path class="cls-20" d="M127.4,23.54a98.24,98.24,0,0,1,16.33,1.11,23,23,0,0,1,7.92,2.5,9.13,9.13,0,0,1,3.6,7.72c-.05,2.9-.56,5.65-.31,8.37-.11,2.8,2.07,4.47,4.42,5.7a74.9,74.9,0,0,0,7.51,3.12,40.25,40.25,0,0,1,3.85,1.66,9.88,9.88,0,0,1,3.56,2.76,6.25,6.25,0,0,1,.9,4.73,15.87,15.87,0,0,1-1.66,4.15,33,33,0,0,0-3.32,7.43,13.41,13.41,0,0,0-.35,1.92A4.78,4.78,0,0,0,170,76.4a13,13,0,0,0,1.76,3.44,76.31,76.31,0,0,0,5.14,6.41c1.8,2.12,3.62,4.26,5.25,6.61a22.6,22.6,0,0,1,3.75,7.93,11.82,11.82,0,0,1,.09,4.63,17,17,0,0,1-.6,2.17,19.55,19.55,0,0,1-.75,2.06A23.68,23.68,0,0,1,180,117c-1.9,2-3.34,4-3.79,6.66a16.7,16.7,0,0,0-.37,3.89,9.74,9.74,0,0,0,1,3.63,26.61,26.61,0,0,0,2.1,3.43,12.47,12.47,0,0,1,1.12,2,4.73,4.73,0,0,1,.39,2.67,7.18,7.18,0,0,1-2.72,4c-1.07.94-2.2,1.79-3.32,2.61-2.16,1.62-4.71,3.16-5.28,5.28a5.14,5.14,0,0,0,.54,3.4,9.42,9.42,0,0,0,2.28,3c1.94,1.79,4.24,3.31,6.45,5s4.47,3.54,5.95,6.26a8,8,0,0,1,.87,4.59,10.33,10.33,0,0,1-1.65,4.23,15.63,15.63,0,0,1-6.46,5.65,34.58,34.58,0,0,1-8,2.48,12.86,12.86,0,0,0-3.67,1.17A.85.85,0,0,0,165,188a3.87,3.87,0,0,0,1,1.51c1.84,1.8,4.56,2.69,7,4a12.57,12.57,0,0,1,3.42,2.51,6,6,0,0,1,1.6,4,16.7,16.7,0,0,1-9.09,13.38,16.7,16.7,0,0,0,8.5-13.36,5.3,5.3,0,0,0-1.52-3.55,12.22,12.22,0,0,0-3.29-2.25c-2.39-1.26-5.09-2-7.34-4a5.08,5.08,0,0,1-1.29-2,2.21,2.21,0,0,1,0-1.4,2.16,2.16,0,0,1,.85-1.1,13.51,13.51,0,0,1,4.07-1.43,33.58,33.58,0,0,0,7.62-2.52,14.25,14.25,0,0,0,5.77-5.22,8.65,8.65,0,0,0,1.33-3.56,6.09,6.09,0,0,0-.75-3.55c-1.24-2.21-3.39-3.94-5.55-5.56s-4.49-3.15-6.64-5.09a11.34,11.34,0,0,1-2.75-3.6,7.18,7.18,0,0,1-.69-4.76,7.78,7.78,0,0,1,2.67-3.89c1.11-1,2.25-1.76,3.35-2.58s2.17-1.63,3.17-2.52a5.38,5.38,0,0,0,2-2.72c.18-.85-.44-1.95-1.2-3.07a28.53,28.53,0,0,1-2.27-3.69,11.73,11.73,0,0,1-1.2-4.46,13.3,13.3,0,0,1,.07-2.29,15.46,15.46,0,0,1,.31-2.21,13.14,13.14,0,0,1,1.6-4.28,23.37,23.37,0,0,1,2.68-3.45,21.65,21.65,0,0,0,4.33-6.66,23.43,23.43,0,0,0,1.23-3.78,9.43,9.43,0,0,0,0-3.74,20.27,20.27,0,0,0-3.37-7.15c-1.53-2.24-3.3-4.35-5.08-6.47A79.79,79.79,0,0,1,170.18,81a15.11,15.11,0,0,1-2-4,6.93,6.93,0,0,1-.25-2.47,15.31,15.31,0,0,1,.42-2.22,33,33,0,0,1,3.56-7.85,14.36,14.36,0,0,0,1.53-3.59,4.35,4.35,0,0,0-.55-3.34A8.25,8.25,0,0,0,170,55.22a39.28,39.28,0,0,0-3.66-1.67,76.55,76.55,0,0,1-7.6-3.33,12.55,12.55,0,0,1-3.47-2.62,5.82,5.82,0,0,1-1.2-2,9.42,9.42,0,0,1-.35-2.25c-.2-2.92.36-5.77.47-8.49a9.13,9.13,0,0,0-.64-3.9,7.19,7.19,0,0,0-2.33-3.08,22.48,22.48,0,0,0-7.57-2.63A110,110,0,0,0,127.4,23.54Z"/><path class="cls-20" d="M120.48,17.11a81.66,81.66,0,0,0-18.78-1.24,30.38,30.38,0,0,0-9.12,1.89,13.84,13.84,0,0,0-6.93,5.86c-1.54,2.67-1.7,6.11-3.64,9A10.52,10.52,0,0,1,78.22,36a15.73,15.73,0,0,1-4.64,1.67c-3.27.64-6.56,0-9.58-.26a7.82,7.82,0,0,0-4.2.67,5.82,5.82,0,0,0-2.75,3c-.87,2.72-.1,6,.68,9s1.89,6.15,2.77,9.32a35.15,35.15,0,0,1,1,4.92A14.28,14.28,0,0,1,61.62,67a6,6,0,0,1-.86,2.76A8.94,8.94,0,0,1,56.59,73,46.44,46.44,0,0,1,52,74.66c-3,1-6,1.91-8.36,3.67a9.49,9.49,0,0,0-4,7.31c-.05,2.88,1.77,5.51,3.33,8.43a12,12,0,0,1,1.58,5.08,8.53,8.53,0,0,1-1.66,5.26c-2.17,3-5.29,4.41-8,5.94s-5.56,3.15-5.86,5.81,1.48,5.53,3.16,8.12,3.74,5.15,5.67,7.74a90.21,90.21,0,0,1,5.51,8.07,24.86,24.86,0,0,1,3.55,9.44,13,13,0,0,1,0,2.65c-.1.85-.22,1.68-.4,2.51a20.2,20.2,0,0,1-1.62,4.85,16,16,0,0,1-3,4.14,38.17,38.17,0,0,1-3.78,3.11,6.1,6.1,0,0,0-2.76,7.53c.73,2.89,3.13,5.12,5.53,7.09,1.22,1,2.49,2,3.73,3a12.51,12.51,0,0,1,3.27,3.86,5.1,5.1,0,0,1,.46,2.71,6.48,6.48,0,0,1-.89,2.51,10.21,10.21,0,0,1-3.53,3.59A19.84,19.84,0,0,1,39.49,199a19.77,19.77,0,0,0-4.29,1.69,1.85,1.85,0,0,0-.92,1.67,4,4,0,0,0,.81,2,14.81,14.81,0,0,0,3.33,3.28,35.23,35.23,0,0,0,17.46,6.61,34.69,34.69,0,0,1-17.8-6.11,15.68,15.68,0,0,1-3.56-3.35,4.65,4.65,0,0,1-1-2.4A2.72,2.72,0,0,1,34.72,200a19.41,19.41,0,0,1,4.47-1.91,19.5,19.5,0,0,0,4.18-2,9.25,9.25,0,0,0,3.09-3.25,4.13,4.13,0,0,0,.32-4.05c-1.4-2.58-4.29-4.3-6.74-6.31s-5.17-4.28-6.16-7.8a7.79,7.79,0,0,1,3.18-9.39c2.56-2,4.84-3.94,6.15-6.71a18,18,0,0,0,1.42-4.36,14,14,0,0,0,.32-4.53,22.75,22.75,0,0,0-3.31-8.58,89.75,89.75,0,0,0-5.41-7.85c-1.93-2.57-3.92-5.1-5.76-7.81a31.69,31.69,0,0,1-2.53-4.33,9.62,9.62,0,0,1-1-5.32,7.54,7.54,0,0,1,2.77-4.77,25.83,25.83,0,0,1,4.17-2.72c2.76-1.54,5.57-3,7.24-5.31a6.23,6.23,0,0,0,1.27-3.83,10,10,0,0,0-1.31-4.11c-1.39-2.71-3.56-5.67-3.54-9.49a11.66,11.66,0,0,1,5-9c2.79-2,6-3,9-3.92a45.58,45.58,0,0,0,4.36-1.54,7.06,7.06,0,0,0,3.31-2.46,6.38,6.38,0,0,0,.5-4.07,32.05,32.05,0,0,0-1-4.61c-.82-3.1-1.89-6.17-2.7-9.37A35.64,35.64,0,0,1,55,45.7a11.9,11.9,0,0,1,.45-5.23A6.65,6.65,0,0,1,57,38.15a7.88,7.88,0,0,1,2.12-1.58,9.37,9.37,0,0,1,5-.76c3.23.31,6.24,1,9.24.43s5.93-1.88,7.65-4.32,2-5.93,3.72-8.86A14.8,14.8,0,0,1,92.29,17a30.53,30.53,0,0,1,9.38-1.68A76.6,76.6,0,0,1,120.48,17.11Z"/><path class="cls-21" d="M164.86,37.53s8,4.07,10.55,10.31l4.54-3s-5.4-8-12.63-8.34Z"/><path class="cls-21" d="M171.67,33.28s14.1,1.58,16.84,7.09l5.4-2.84s-5.5-5.48-18.5-6.2Z"/><path class="cls-21" d="M91.69,25.82a14.48,14.48,0,0,0-9.12,11.71l-7.4-4.32A22.81,22.81,0,0,1,90.49,22.05Z"/><path class="cls-21" d="M85.45,21.33s-12.56,3.33-16.35,7.6l-6-5.39a73.1,73.1,0,0,1,20.29-3.16Z"/><path class="cls-21" d="M133.92,7.79s9-2.7,14.18-1.54,8.18,9.24,8.18,9.24l-3.44,4s-4.18-8.54-18.92-6.74Z"/><path class="cls-21" d="M132.66,17.11s10.67-1.58,16,4.94l-1.88,1.49a28.87,28.87,0,0,0-14.12-3.3Z"/><path class="cls-22" d="M122.71,22.05s7.85-4.54,8-7.9S127.4,8,127.4,8l-6.52,2.89S119.17,20.82,122.71,22.05Z"/><path class="cls-23" d="M107.05,156s7.37,8.91,14.77,8.91c8.72,0,16.24-9.4,16.24-9.4S121.88,167.3,107.05,156Z"/><path class="cls-24" d="M98,141.63s7.95,21.7,24.52,21.7c15.53,0,24.53-21.63,24.53-21.63l-24.2,9.39Z"/><path class="cls-25" d="M122.53,140.2v5.19A59.61,59.61,0,0,1,98,140.51a72.34,72.34,0,0,0,13.54-.31,38.21,38.21,0,0,1,4.73-.39h.33A33.46,33.46,0,0,1,122.53,140.2Z"/><path class="cls-26" d="M122.53,145.4a62.43,62.43,0,0,1-26.22-5.65s13.15,15.74,26.22,15.74c13.67,0,26.23-15.74,26.23-15.74A62.45,62.45,0,0,1,122.53,145.4Z"/><path class="cls-25" d="M147.06,140.51a59.68,59.68,0,0,1-24.53,4.88V140.2a31.59,31.59,0,0,1,4.49-.38h.11c.65,0,1.35,0,2.1,0h0a37.73,37.73,0,0,1,4.26.38A72.34,72.34,0,0,0,147.06,140.51Z"/><path class="cls-27" d="M100.87,141.63l2.09,4.61s8.51,8.32,19.62,8.32,19.62-9.14,19.62-9.14l1.93-3.77a64.33,64.33,0,0,1-21.68,4.25A63.29,63.29,0,0,1,100.87,141.63Z"/><path class="cls-28" d="M101.83,143.74s9.5,6.8,20.67,6.8,20.56-6.8,20.56-6.8l.31-.61s-9.76,7.18-20.79,7.18-21-7.34-21-7.34Z"/><path class="cls-26" d="M127,139.82a17.35,17.35,0,0,0-4.49.93c-2-.9-5.92-.94-5.92-.94a33.46,33.46,0,0,1,5.92.39A31.59,31.59,0,0,1,127,139.82Z"/><path class="cls-29" d="M128.29,156.9l.45,2.08a16.67,16.67,0,0,1,3.44-3,11.8,11.8,0,0,1,2.89-1.36l-.52-.68A16,16,0,0,1,128.29,156.9Z"/><polygon class="cls-29" points="135.07 153.62 136.32 152.5 137.2 153.06 135.59 154.19 135.07 153.62"/><path class="cls-30" d="M113.58,127.77s-2.35-12.55,8.74-12.55,9.23,12.3,9.23,12.3l-.49.25s-3,2.78-8.74,2.78S113.58,127.77,113.58,127.77Z"/><path class="cls-31" d="M122.09,129c-4.82.08-5.58-6.14-8.51-1.25,3-.12,5.35,2.75,8.74,2.78s5.77-2.9,8.74-2.78C130.08,122.88,126.54,128.94,122.09,129Z"/><path class="cls-32" d="M126.84,129.11a3.57,3.57,0,0,1,4.22-1.34Z"/><path class="cls-33" d="M113.58,127.77s1.75-1.26,4.08,1.26Z"/><path class="cls-34" d="M114.7,118.94s-2.54,3.22-1.32,8.58A39.28,39.28,0,0,1,114.7,118.94Z"/><path class="cls-35" d="M130.24,118.94s2.53,3.22,1.31,8.58A39.62,39.62,0,0,0,130.24,118.94Z"/><path class="cls-36" d="M113.58,127.77s4.77,6,8.74,6,8.74-6,8.74-6c-1.42-4.89-3.69.88-9,1.25C119.3,129.21,116.1,122.88,113.58,127.77Z"/><path class="cls-37" d="M126.09,124.68c0-.72.57-1.53,1-1.45s.24,1.63,0,1.93S126.09,124.68,126.09,124.68Z"/><path class="cls-38" d="M140.28,110s5.5,2.8,15.66,0,12-10.92,12-10.92l-1.5-1A35.09,35.09,0,0,1,140.28,110Z"/><path class="cls-39" d="M135.72,107.17c0-1.87,2.89-17.64,14.19-21.44s16.77,9,16.54,12.38-4.37,11.31-15.77,12.68C141.36,111.9,135.72,108.36,135.72,107.17Z"/><ellipse class="cls-40" cx="149.91" cy="98.01" rx="9.05" ry="9.96"/><ellipse class="cls-41" cx="149.91" cy="98.01" rx="8.52" ry="9.38"/><path class="cls-42" d="M144.39,98a5.55,5.55,0,1,0,5.52-6.08A5.82,5.82,0,0,0,144.39,98Z"/><path class="cls-43" d="M135.72,107.17s4.49-16.27,18-18c11.28-1.47,12.77,7.25,12.77,7.25S164.33,84,153.68,83.54,136.08,98.67,135.72,107.17Z"/><path class="cls-38" d="M136.31,105.75a6.92,6.92,0,0,0,2.3,3.67s-2.74-.94-2.89-2.25Z"/><path class="cls-44" d="M156.82,96c-.54.53,2,.66,3.89-.16,1.69-.73,2.51-1.93,2.35-2.14S159,93.88,156.82,96Z"/><path class="cls-44" d="M155.38,96.52c-.72-.27-1.56.14-1.59.56s.86,1,1.27.77S155.78,96.67,155.38,96.52Z"/><path class="cls-45" d="M136.31,105.75s10.48-19.66,29.41-11.67c0,0-2.67-6.81-13.2-4.77S136.31,105.75,136.31,105.75Z"/><path class="cls-46" d="M135.72,107.17s5.83-16,17.67-17.13c9.63-.94,12.33,4,12.33,4l4.75-4.85h-2.71s-7.7-4.88-15.89-2C142.5,90.53,136.39,103.39,135.72,107.17Z"/><path class="cls-38" d="M103.85,110s-5.5,2.8-15.66,0-12-10.92-12-10.92l1.5-1A35.09,35.09,0,0,0,103.85,110Z"/><path class="cls-47" d="M108.41,107.17c0-1.87-2.89-17.64-14.19-21.44s-16.77,9-16.54,12.38,4.37,11.31,15.77,12.68C102.77,111.9,108.41,108.36,108.41,107.17Z"/><ellipse class="cls-48" cx="94.22" cy="98.01" rx="9.05" ry="9.96"/><ellipse class="cls-49" cx="94.22" cy="98.01" rx="8.52" ry="9.38"/><path class="cls-50" d="M88.69,98a5.55,5.55,0,1,0,5.53-6.08A5.82,5.82,0,0,0,88.69,98Z"/><path class="cls-43" d="M108.41,107.17s-4.49-16.27-18-18C79.17,87.68,77.68,96.4,77.68,96.4S79.8,84,90.45,83.54,108.05,98.67,108.41,107.17Z"/><path class="cls-38" d="M107.82,105.75a6.92,6.92,0,0,1-2.3,3.67s2.74-.94,2.89-2.25Z"/><path class="cls-44" d="M87.41,96c.55.53-2,.66-3.88-.16-1.7-.73-2.52-1.93-2.35-2.14S85.25,93.88,87.41,96Z"/><path class="cls-44" d="M88.85,96.52c.72-.27,1.56.14,1.59.56s-.85,1-1.27.77S88.45,96.67,88.85,96.52Z"/><path class="cls-45" d="M107.82,105.75S97.34,86.09,78.41,94.08c0,0,2.66-6.81,13.2-4.77S107.82,105.75,107.82,105.75Z"/><path class="cls-51" d="M108.41,107.17S102.58,91.2,90.74,90c-9.63-.94-12.33,4-12.33,4l-4.75-4.85h2.71s7.7-4.88,15.89-2C101.63,90.53,107.74,103.39,108.41,107.17Z"/><path class="cls-52" d="M134.41,80s1-6,2.26-8c0,0,11-2.8,17.23-3.56,7.38-.9,9.62-.34,9.62-.34s3.72,1.44,6.57,8c0,0-4-4.5-7.13-4.64C153.54,71.09,140.17,75.64,134.41,80Z"/><path class="cls-53" d="M134.41,80s-.58-5.11.61-7.53h-1.14S133.06,75.38,134.41,80Z"/><path class="cls-54" d="M108.66,80s-1-6-2.27-8c0,0-11-2.8-17.23-3.56-7.38-.9-9.62-.34-9.62-.34s-3.72,1.44-6.56,8c0,0,4-4.5,7.12-4.64C89.52,71.09,102.89,75.64,108.66,80Z"/><path class="cls-55" d="M108.66,80s.58-5.11-.62-7.53h1.14S110,75.38,108.66,80Z"/><path class="cls-56" d="M86.79,208c5.59-3.09,8.39-4.77,11.48-4.64,6.88.28,8.78,6.41,18.32,9a32.92,32.92,0,0,0,13.5,1.13c10.68-1.43,13.06-7.89,21.1-8.33,3.5-.2,8.86.7,15.75,6.72a31.46,31.46,0,0,1,9,11.48,119.74,119.74,0,0,1-17.46,6.46,133,133,0,0,1-28,4.5,124.21,124.21,0,0,1-23.79-.65,116.62,116.62,0,0,1-34.92-10.28,28.49,28.49,0,0,1,4-6.75C79.33,212.13,83.36,209.85,86.79,208Z"/></g></g></g></svg>